<?xml version="1.0" encoding="UTF-8" standalone="no"?>
<svg
   version="1.1"
   id="Layer_1"
   x="0px"
   y="0px"
   width="100%"
   viewBox="0 0 1024 1024"
   enable-background="new 0 0 1024 1024"
   xml:space="preserve"
   sodipodi:docname="digitalnest2.svg"
   inkscape:version="1.4.2 (f4327f4, 2025-05-13)"
   xmlns:inkscape="http://www.inkscape.org/namespaces/inkscape"
   xmlns:sodipodi="http://sodipodi.sourceforge.net/DTD/sodipodi-0.dtd"
   xmlns="http://www.w3.org/2000/svg"
   xmlns:svg="http://www.w3.org/2000/svg"><defs
   id="defs88" /><sodipodi:namedview
   id="namedview88"
   pagecolor="#ffffff"
   bordercolor="#000000"
   borderopacity="0.25"
   inkscape:showpageshadow="2"
   inkscape:pageopacity="0.0"
   inkscape:pagecheckerboard="true"
   inkscape:deskcolor="#d1d1d1"
   inkscape:zoom="0.75488282"
   inkscape:cx="562.33893"
   inkscape:cy="633.87322"
   inkscape:window-width="1920"
   inkscape:window-height="991"
   inkscape:window-x="-9"
   inkscape:window-y="-9"
   inkscape:window-maximized="1"
   inkscape:current-layer="Layer_1" />

<path
   fill="#4D35B7"
   opacity="1.000000"
   stroke="none"
   d=" M455.961456,178.288712   C478.265411,175.556503 500.685577,174.647537 523.612854,174.371933   C524.753540,174.790482 525.404236,174.843964 526.054932,174.897446   C527.755676,174.911026 529.456360,174.924606 531.850830,175.275467   C536.677002,175.799637 540.809387,175.986557 544.941772,176.173462   C554.785217,177.183823 564.744629,177.567047 574.443054,179.361374   C586.902588,181.666550 599.152527,185.104858 611.897217,188.634155   C615.568298,190.125839 618.834900,191.038361 622.101562,191.950882   C622.101562,191.950882 622.030518,191.978912 622.154907,192.282928   C625.896973,193.699951 629.514587,194.812927 633.132263,195.925919   C633.132263,195.925919 633.040405,195.949646 633.163452,196.256989   C634.903931,197.016724 636.521423,197.469116 638.138855,197.921509   C638.138855,197.921509 638.040894,197.942764 638.160522,198.248474   C639.887634,199.018784 641.495117,199.483398 643.102539,199.948013   C643.102539,199.948013 643.030334,199.974808 643.161743,200.282654   C644.893738,201.045273 646.494263,201.500015 648.094849,201.954758   C648.094849,201.954758 648.028015,201.989059 648.082275,202.135849   C648.411377,202.237488 648.686340,202.192322 648.961243,202.147156   C679.024658,214.601593 705.593994,232.438309 729.884094,254.590820   C712.725525,269.271667 695.716614,283.824463 678.646484,298.429596   C655.001770,278.468903 628.971558,263.488159 600.476868,252.796082   C583.253296,246.333267 565.519897,241.898010 547.181702,240.034836   C544.058533,239.717529 540.941223,239.342667 537.269775,238.507492   C536.016479,237.692123 535.316162,237.080872 534.612610,237.077194   C522.336426,237.012970 510.059662,236.990753 497.783936,237.083832   C496.880615,237.090668 495.984528,238.046356 495.085083,238.560913   C482.640778,240.342010 470.196442,242.123123 457.101562,243.615616   C448.162720,245.370850 439.871490,247.403336 431.598419,249.507004   C431.315857,249.578857 431.215027,250.365616 431.029480,250.819138   C426.377350,252.594727 421.697357,254.300888 417.077515,256.156830   C378.597198,271.615753 346.289520,294.968018 323.388275,330.105927   C314.234619,344.150604 307.155212,359.225586 302.323730,375.938782   C300.167877,384.279083 298.604645,392.213135 297.041382,400.147186   C297.021545,403.767059 296.910339,407.389191 296.998322,411.006439   C297.307587,423.718933 297.685364,436.429718 297.820740,449.670807   C297.543365,450.301178 297.407745,450.458496 297.434052,450.493195   C297.569397,450.671936 297.746216,450.819214 297.908600,450.977478   C297.908600,450.977478 298.039581,451.405548 298.024170,452.079651   C299.832123,459.818878 301.655518,466.884033 303.478912,473.949158   C311.999084,501.716858 324.192322,527.627686 342.891266,550.079407   C370.231567,582.906738 404.171783,606.610779 444.006195,621.832153   C452.370483,625.028198 461.057312,627.466370 469.729645,629.742981   C476.587921,631.543335 483.625183,632.722046 490.632538,633.875793   C496.495056,634.841125 502.429352,635.370483 508.883636,636.652100   C519.743164,637.317749 530.050964,637.428528 540.358948,637.498474   C540.559692,637.499878 540.763794,637.021362 540.966370,636.766724   C552.329956,635.155090 564.039307,634.756836 574.973999,631.640320   C590.428772,627.235474 605.590759,621.471069 620.368408,615.105286   C639.414978,606.900452 656.331970,594.964050 672.451538,581.987671   C710.078857,551.697327 739.216553,514.134460 764.937195,473.666748   C771.935730,462.655609 779.944336,452.560486 791.408386,444.889404   C792.364868,444.486359 792.670471,444.180695 792.976013,443.875031   C792.976013,443.875031 792.961975,443.964691 793.248047,443.941467   C794.006287,443.544678 794.478394,443.171143 794.950439,442.797607   C794.950439,442.797577 794.945679,442.923737 795.221619,442.925232   C795.981201,442.549500 796.464844,442.172302 796.948486,441.795105   C796.948486,441.795135 796.950989,441.919189 797.317261,441.941711   C804.814880,439.418701 811.946533,440.602631 819.078247,441.962433   C819.078247,441.962433 819.022888,442.003174 819.058594,442.331116   C820.105774,443.094299 821.117371,443.529602 822.128906,443.964905   C822.469360,443.932281 822.736267,444.057129 823.086243,444.834717   C823.558472,445.534729 823.873962,445.739441 824.189453,445.944153   C824.189453,445.944122 824.044678,445.957184 824.147705,446.157104   C824.572571,446.552368 824.894409,446.747650 825.216248,446.942932   C825.547852,446.937286 825.797119,447.077667 826.098755,447.835083   C826.493835,448.539551 826.754456,448.772980 827.015076,449.006409   C827.015076,449.006409 827.176147,449.154175 827.121765,449.650513   C828.108765,451.744537 829.150208,453.342194 830.191650,454.939880   C830.191589,454.939880 830.080261,454.950409 830.055054,455.341064   C831.030884,468.497406 832.031860,481.263092 833.025269,494.494568   C833.010315,502.735870 832.924011,510.512512 833.036621,518.286255   C833.078430,521.176941 833.586304,524.060974 833.881592,526.947998   C833.183716,545.276855 831.742188,563.514221 826.766418,581.943115   C825.925415,585.444397 825.500732,588.370300 825.076050,591.296204   C825.076050,591.296204 825.161682,591.664734 824.786255,592.058777   C823.298401,597.395813 822.185974,602.338745 821.073547,607.281738   C821.073547,607.281738 821.143982,607.657959 820.825317,607.949829   C820.626709,608.814209 820.746826,609.386597 820.866943,609.959045   C802.594238,673.716858 770.288818,728.942566 720.831726,773.587708   C685.843140,805.171936 645.601135,827.720215 600.373657,840.870056   C585.871399,845.086670 570.716003,847.070007 555.842773,849.990723   C550.516418,851.036621 545.141174,851.833862 539.284790,852.369263   C536.126465,851.986511 533.469727,852.043152 530.817139,851.961487   C510.500793,851.336487 490.185242,850.684570 469.869446,850.041016   C468.181610,850.018311 466.493744,849.995544 464.298004,849.529419   C456.861053,847.720642 449.931976,846.355164 442.638824,844.989990   C441.791138,845.040527 441.307526,845.090820 440.823944,845.141113   C440.823944,845.141113 440.961670,845.132507 440.806091,844.842102   C431.387512,842.047424 422.124512,839.543152 412.861481,837.038818   C398.084534,831.373352 382.677704,826.951111 368.634979,819.836426   C289.847992,779.919678 235.309631,718.225037 205.619385,634.938416   C196.197952,608.509583 190.172043,581.230103 187.935364,553.188416   C187.288147,545.074341 186.619064,536.962036 186.323456,528.090088   C186.508621,519.242188 186.330338,511.153046 186.152039,503.063934   C187.668549,487.235535 189.164627,471.405121 190.718323,455.580383   C191.039734,452.306824 191.575394,449.054291 192.466934,445.286316   C193.241455,444.422607 193.747742,444.112762 193.854263,443.699768   C197.837433,428.258118 201.742142,412.796112 205.755341,397.362305   C207.364975,391.172089 209.202148,385.041077 210.935730,378.883087   C210.935730,378.883087 210.960236,378.959412 211.271088,378.834351   C212.029297,377.096710 212.476639,375.484131 212.924011,373.871552   C212.924011,373.871552 212.947479,373.956421 213.236786,373.847717   C214.387421,371.169678 215.248718,368.600403 216.110016,366.031097   C234.232574,325.154358 259.448303,289.275665 292.213013,258.831390   C328.084625,225.500275 369.597534,201.806549 416.896545,187.391754   C430.122284,184.978409 442.737000,182.306808 455.338013,179.572052   C455.625153,179.509750 455.757111,178.732483 455.961456,178.288712  M310.955475,615.044250   C310.955475,615.044250 310.945709,615.206543 310.728027,614.643860   C310.383179,614.454895 310.038330,614.265930 309.092896,613.824463   C282.819733,585.353210 259.925690,554.690918 246.689682,517.744812   C246.440689,517.049805 245.519180,516.595703 244.339920,516.580688   C244.734589,523.065125 244.970886,529.565063 245.599792,536.026672   C245.861145,538.712036 246.960587,541.315735 247.939896,544.796021   C251.340363,561.800354 253.713760,579.088928 258.327881,595.757324   C274.115051,652.787903 305.277802,700.023865 351.521851,737.032104   C362.098236,745.496155 373.578247,752.831116 385.111481,761.248596   C385.770966,761.485657 386.430420,761.722656 387.025269,761.992126   C387.025269,761.992126 387.021362,761.919922 387.367401,762.496704   C387.787323,762.646423 388.207275,762.796143 388.818115,762.818176   C388.818115,762.818176 388.992828,762.967346 389.081909,763.686890   C390.781921,764.417908 392.481934,765.148926 394.056946,765.914673   C394.056946,765.914673 394.054016,765.784973 394.316437,766.402405   C394.939484,766.561157 395.562500,766.719910 396.059235,766.913208   C396.059235,766.913208 396.057373,766.782288 396.310944,767.399109   C396.930969,767.564575 397.550995,767.730042 398.051025,767.926941   C398.051025,767.926941 398.047363,767.802917 398.317841,768.420410   C398.947235,768.565063 399.576660,768.709717 400.075043,768.882812   C400.075043,768.882812 400.089661,768.749512 400.275940,769.486694   C402.382355,770.299805 404.488770,771.112854 406.815308,771.806763   C406.815308,771.806763 406.993713,771.982422 407.318726,772.517273   C407.918060,772.658630 408.517426,772.799927 409.036469,772.964661   C409.036469,772.964661 409.028503,772.881409 409.318237,773.470825   C409.940552,773.606445 410.562897,773.742065 411.050690,773.923584   C411.050690,773.923584 411.032806,773.782532 411.412537,774.451599   C412.148895,774.609253 412.885254,774.766907 413.808990,774.804810   C413.808990,774.804810 413.979492,774.947632 414.304443,775.499268   C414.917053,775.640503 415.529694,775.781799 416.043518,775.944702   C416.043518,775.944702 416.043823,775.843567 416.289276,776.555908   C417.911957,777.004944 419.534607,777.453979 421.041351,777.933960   C421.041351,777.933960 421.034851,777.814148 421.357361,778.452087   C422.274902,778.616394 423.192474,778.780640 424.034943,778.968140   C424.034943,778.968140 424.032227,778.889587 424.273041,779.576965   C427.908569,780.700684 431.544067,781.824463 435.609131,782.943604   C435.609131,782.943604 436.020691,783.066589 436.361023,783.574524   C436.945557,783.705566 437.530060,783.836609 438.840759,784.181824   C443.917419,785.284485 448.994049,786.387146 454.355743,788.231506   C457.297394,788.803833 460.239075,789.376160 463.597198,789.927429   C463.597198,789.927429 464.005127,790.013855 464.476135,790.601929   C469.638641,791.105225 474.801178,791.608521 480.811035,792.000305   C488.551086,792.650635 496.284637,793.397217 504.033142,793.922913   C511.090546,794.401672 518.187317,795.155518 525.224243,794.840637   C532.309570,794.523682 539.326599,792.898193 546.401733,792.093689   C564.826172,789.998901 582.628845,785.392944 600.454041,779.639465   C601.628967,779.069946 602.803833,778.500427 603.975891,777.999573   C603.975891,777.999573 603.917480,777.963196 604.521484,777.910522   C605.008789,777.625061 605.496033,777.339661 606.331055,776.874878   C606.331055,776.874878 606.719055,776.924988 607.534424,776.965515   C609.919128,775.831055 612.303772,774.696594 614.739685,773.584717   C614.739685,773.584717 614.782043,773.621338 615.531311,773.884155   C618.349670,772.282043 621.168030,770.679993 624.315247,768.880310   C624.315247,768.880310 624.697266,768.916138 625.396484,768.925415   C625.916565,768.545227 626.436584,768.165100 626.947083,767.921387   C626.947083,767.921387 626.815918,767.882629 627.496643,767.915161   C627.968994,767.518555 628.441345,767.121948 628.920593,766.873108   C628.920593,766.873108 628.777954,766.833557 629.546326,766.946533   C631.024719,765.950562 632.503052,764.954590 633.982849,764.009155   C633.982849,764.009155 633.944641,763.975952 634.566772,763.904846   C635.036255,763.571350 635.505676,763.237854 635.970520,762.980042   C635.970520,762.980042 635.899536,762.953308 636.619507,762.889526   C637.190613,762.482544 637.761719,762.075623 638.603088,761.095886   C675.495117,739.405212 705.289978,710.345520 729.027832,674.803650   C756.429016,633.776733 772.002991,582.505554 772.460693,558.097290   C771.800964,559.294922 771.370117,560.155701 770.869690,560.973816   C759.565308,579.452942 746.490417,596.552429 730.670837,612.193726   C730.457458,612.503906 730.244080,612.814087 729.785522,613.739075   C693.544189,651.763245 651.403381,680.301514 600.151550,694.059204   C593.481140,695.849792 586.473572,696.406982 579.832764,698.281433   C561.646423,703.414673 542.886841,702.509277 524.362000,703.838562   C516.297302,704.417358 508.104401,703.208618 499.767273,702.065125   C496.615143,701.464966 493.485565,700.656982 490.305756,700.312195   C485.198456,699.758362 480.057892,699.510803 474.079437,699.093872   C458.661041,695.114136 442.919647,692.071838 427.911530,686.901184   C411.649872,681.298584 395.622498,674.593994 380.298615,666.788391   C356.096893,654.460510 334.178741,638.609253 314.721130,618.693909   C314.376495,618.488403 314.031860,618.282837 313.185608,617.923950   C312.764679,617.385925 312.343750,616.847839 311.745544,615.733582   C311.428101,615.507080 311.110657,615.280579 310.955475,615.044250  z"
   id="path2" />
<path
   fill="#FFD621"
   opacity="1.000000"
   stroke="none"
   d=" M386.195740,429.934082   C407.860229,462.090576 439.176483,479.762512 475.860992,488.889160   C512.904358,498.105042 547.776367,491.544495 581.046265,473.495544   C608.749390,458.466492 632.894470,438.757141 656.342346,418.030792   C681.130920,396.119415 705.122864,373.184814 733.964355,356.404572   C753.382263,345.107117 773.699036,336.015259 795.917419,331.551239   C809.468750,328.828613 809.651917,328.500275 813.527527,341.505890   C817.148132,353.655823 820.197205,365.976074 823.606995,378.626221   C795.324585,381.852417 771.058594,392.620483 750.266846,410.158722   C737.480896,420.943909 725.812439,433.216614 714.627136,445.703644   C688.852722,474.477722 663.674927,503.775269 632.511230,527.099365   C611.153259,543.084473 587.828796,554.874573 561.060608,560.609985   C553.259521,560.976807 546.125427,561.602539 539.002625,562.337646   C538.623962,562.376709 538.340637,563.339111 538.012939,563.871704   C537.556335,563.921753 537.099670,563.971802 536.053223,563.698120   C533.652039,563.552185 531.840759,563.730103 530.029480,563.908020   C528.294006,563.950073 526.558594,563.992126 524.135498,563.692505   C516.643188,562.865112 509.838470,562.379333 503.033722,561.893555   C476.281281,557.375732 451.641418,547.905273 430.066162,530.189453   C428.931702,529.022888 427.970795,528.510132 427.009888,527.997375   C424.746887,525.953796 422.483856,523.910278 419.988464,521.299316   C419.447998,520.507446 419.139893,520.282898 418.831787,520.058411   C418.831787,520.058411 418.952423,520.044373 418.833313,519.835083   C418.379211,519.443848 418.044189,519.261841 417.709167,519.079773   C415.884766,517.259216 414.060364,515.438721 412.107056,512.937744   C411.209229,511.538483 410.440308,510.819733 409.671326,510.100952   C407.783325,507.743408 405.895325,505.385864 403.891479,502.413696   C403.489258,501.539459 403.202911,501.279816 402.916595,501.020142   C402.600433,500.618744 402.284271,500.217346 401.878265,499.279846   C401.524017,498.495178 401.259613,498.246582 400.995239,497.997986   C400.995239,497.997986 400.813293,497.804749 400.874939,497.265442   C400.230255,495.852539 399.523926,494.978973 398.817566,494.105408   C398.817596,494.105377 398.903168,494.055450 398.928589,493.714386   C396.993103,489.918457 395.032196,486.463593 393.071259,483.008728   C393.071259,483.008728 392.904785,482.652313 392.934814,482.036011   C391.668335,478.282654 390.371765,475.145660 389.075226,472.008636   C389.075226,472.008636 388.917816,471.620819 388.942993,471.007507   C388.362061,468.934265 387.756012,467.474274 387.149963,466.014313   C387.070587,465.573730 386.991180,465.133148 387.196960,464.168793   C387.018646,462.766479 386.555145,461.887939 386.091614,461.009399   C386.013184,460.580841 385.934753,460.152283 386.147675,459.166412   C385.662048,449.955963 384.820648,441.307343 384.209198,432.642517   C384.149109,431.790680 385.499847,430.839264 386.195740,429.934082  z"
   id="path3" />
<path
   fill="#3C27AF"
   opacity="1.000000"
   stroke="none"
   d=" M470.065186,850.404785   C490.185242,850.684570 510.500793,851.336487 530.817139,851.961487   C533.469727,852.043152 536.126465,851.986511 538.877075,852.335876   C517.835266,854.493408 496.747406,854.036621 475.707123,851.311157   C473.898651,851.076965 472.076660,850.947021 470.065186,850.404785  z"
   id="path4" />
<path
   fill="#351EAD"
   opacity="1.000000"
   stroke="none"
   d=" M210.668060,379.127991   C209.202148,385.041077 207.364975,391.172089 205.755341,397.362305   C201.742142,412.796112 197.837433,428.258118 193.854263,443.699768   C193.747742,444.112762 193.241455,444.422607 192.556335,444.876892   C195.591187,422.365387 202.296341,400.674988 210.668060,379.127991  z"
   id="path5" />
<path
   fill="#331BAD"
   opacity="1.000000"
   stroke="none"
   d=" M455.565155,178.315155   C455.757111,178.732483 455.625153,179.509750 455.338013,179.572052   C442.737000,182.306808 430.122284,184.978409 417.275085,187.388412   C429.750244,184.193359 442.459564,181.267487 455.565155,178.315155  z"
   id="path6" />
<path
   fill="#FECF11"
   opacity="1.000000"
   stroke="none"
   d=" M386.029602,429.602112   C385.499847,430.839264 384.149109,431.790680 384.209198,432.642517   C384.820648,441.307343 385.662048,449.955963 386.152222,458.838745   C383.251862,450.760406 382.093842,434.605469 383.589111,424.697205   C384.548370,426.625977 385.205902,427.948090 386.029602,429.602112  z"
   id="path7" />
<path
   fill="#321AAB"
   opacity="1.000000"
   stroke="none"
   d=" M833.032837,494.028748   C832.031860,481.263092 831.030884,468.497406 830.064331,455.285950   C831.039062,459.486267 832.412659,464.094513 832.823242,468.787018   C833.533875,476.907684 833.647278,485.080566 833.725708,493.622009   C833.440247,494.012421 833.032837,494.028748 833.032837,494.028748  z"
   id="path8" />
<path
   fill="#1F09A2"
   opacity="1.000000"
   stroke="none"
   d=" M495.491669,238.581879   C495.984528,238.046356 496.880615,237.090668 497.783936,237.083832   C510.059662,236.990753 522.336426,237.012970 534.612610,237.077194   C535.316162,237.080872 536.016479,237.692123 536.831970,238.393250   C523.263184,238.711533 509.580719,238.657181 495.491669,238.581879  z"
   id="path9" />
<path
   fill="#321AAB"
   opacity="1.000000"
   stroke="none"
   d=" M413.015625,837.382935   C422.124512,839.543152 431.387512,842.047424 440.792267,844.909668   C431.679291,842.754150 422.424530,840.240662 413.015625,837.382935  z"
   id="path10" />
<path
   fill="#321AAB"
   opacity="1.000000"
   stroke="none"
   d=" M431.406677,250.819809   C431.215027,250.365616 431.315857,249.578857 431.598419,249.507004   C439.871490,247.403336 448.162720,245.370850 456.702393,243.600113   C448.563782,246.188980 440.173798,248.504730 431.406677,250.819809  z"
   id="path11" />
<path
   fill="#FECE10"
   opacity="1.000000"
   stroke="none"
   d=" M538.449463,563.920654   C538.340637,563.339111 538.623962,562.376709 539.002625,562.337646   C546.125427,561.602539 553.259521,560.976807 560.669434,560.589722   C553.593689,561.890808 546.239807,562.930237 538.449463,563.920654  z"
   id="path12" />
<path
   fill="#321AAB"
   opacity="1.000000"
   stroke="none"
   d=" M297.391052,399.947449   C298.604645,392.213135 300.167877,384.279083 302.087463,376.209106   C300.876068,383.964661 299.308380,391.856171 297.391052,399.947449  z"
   id="path13" />
<path
   fill="#351EAD"
   opacity="1.000000"
   stroke="none"
   d=" M303.373962,473.598907   C301.655518,466.884033 299.832123,459.818878 298.025513,452.303467   C299.784546,458.985016 301.526764,466.116821 303.373962,473.598907  z"
   id="path14" />
<path
   fill="#351EAD"
   opacity="1.000000"
   stroke="none"
   d=" M443.002930,844.989746   C449.931976,846.355164 456.861053,847.720642 463.882416,849.451111   C457.235565,848.563110 450.496399,847.310059 443.379028,845.739441   C443.000793,845.421875 443.002930,844.989746 443.002930,844.989746  z"
   id="path15" />
<path
   fill="#FECE10"
   opacity="1.000000"
   stroke="none"
   d=" M503.438446,561.967773   C509.838470,562.379333 516.643188,562.865112 523.706299,563.624207   C517.257446,563.279053 510.550323,562.660522 503.438446,561.967773  z"
   id="path16" />
<path
   fill="#13049F"
   opacity="1.000000"
   stroke="none"
   d=" M833.025269,494.494568   C833.032837,494.028748 833.440247,494.012421 833.644043,494.015747   C833.891907,504.686737 833.935913,515.354370 833.930786,526.484985   C833.586304,524.060974 833.078430,521.176941 833.036621,518.286255   C832.924011,510.512512 833.010315,502.735870 833.025269,494.494568  z"
   id="path17" />
<path
   fill="#321AAB"
   opacity="1.000000"
   stroke="none"
   d=" M818.829224,441.689331   C811.946533,440.602631 804.814880,439.418701 797.256714,441.928314   C803.991577,437.696014 811.253418,438.071503 818.829224,441.689331  z"
   id="path18" />
<path
   fill="#19049F"
   opacity="1.000000"
   stroke="none"
   d=" M540.500122,636.733887   C540.763794,637.021362 540.559692,637.499878 540.358948,637.498474   C530.050964,637.428528 519.743164,637.317749 509.234283,636.823608   C519.366699,636.524292 529.700256,636.612671 540.500122,636.733887  z"
   id="path19" />
<path
   fill="#1908A3"
   opacity="1.000000"
   stroke="none"
   d=" M186.098846,503.525818   C186.330338,511.153046 186.508621,519.242188 186.409927,527.634155   C186.103836,519.953918 186.074753,511.970795 186.098846,503.525818  z"
   id="path20" />
<path
   fill="#2F16AB"
   opacity="1.000000"
   stroke="none"
   d=" M821.380249,607.052002   C822.185974,602.338745 823.298401,597.395813 824.701782,592.228149   C823.890869,596.943054 822.788879,601.882690 821.380249,607.052002  z"
   id="path21" />
<path
   fill="#FECF11"
   opacity="1.000000"
   stroke="none"
   d=" M393.111572,483.364136   C395.032196,486.463593 396.993103,489.918457 398.921722,493.763428   C396.976898,490.675568 395.064392,487.197571 393.111572,483.364136  z"
   id="path22" />
<path
   fill="#2F16AB"
   opacity="1.000000"
   stroke="none"
   d=" M544.534546,176.095200   C540.809387,175.986557 536.677002,175.799637 532.274780,175.310974   C536.045715,175.345123 540.086487,175.681030 544.534546,176.095200  z"
   id="path23" />
<path
   fill="#321AAB"
   opacity="1.000000"
   stroke="none"
   d=" M632.904297,195.641281   C629.514587,194.812927 625.896973,193.699951 622.152649,192.244827   C625.576111,193.054001 629.126282,194.205322 632.904297,195.641281  z"
   id="path24" />
<path
   fill="#FECF11"
   opacity="1.000000"
   stroke="none"
   d=" M389.058838,472.383545   C390.371765,475.145660 391.668335,478.282654 392.942078,481.839478   C391.627014,479.092316 390.334717,475.925415 389.058838,472.383545  z"
   id="path25" />
<path
   fill="#351EAD"
   opacity="1.000000"
   stroke="none"
   d=" M215.967072,366.355530   C215.248718,368.600403 214.387421,371.169678 213.192780,373.848816   C213.847672,371.532410 214.835892,369.106201 215.967072,366.355530  z"
   id="path26" />
<path
   fill="#321AAB"
   opacity="1.000000"
   stroke="none"
   d=" M621.840210,191.688873   C618.834900,191.038361 615.568298,190.125839 612.186157,188.846039   C615.239990,189.461472 618.409424,190.444153 621.840210,191.688873  z"
   id="path27" />
<path
   fill="#2F16AB"
   opacity="1.000000"
   stroke="none"
   d=" M825.387817,591.050598   C825.500732,588.370300 825.925415,585.444397 826.634521,582.274963   C826.512573,584.955933 826.106140,587.880493 825.387817,591.050598  z"
   id="path28" />
<path
   fill="#321AAB"
   opacity="1.000000"
   stroke="none"
   d=" M830.137573,454.581299   C829.150208,453.342194 828.108765,451.744537 827.080811,449.751892   C828.090698,450.978851 829.087097,452.600830 830.137573,454.581299  z"
   id="path29" />
<path
   fill="#321AAB"
   opacity="1.000000"
   stroke="none"
   d=" M637.908936,197.655716   C636.521423,197.469116 634.903931,197.016724 633.161621,196.209610   C634.584106,196.366547 636.131531,196.878235 637.908936,197.655716  z"
   id="path30" />
<path
   fill="#321AAB"
   opacity="1.000000"
   stroke="none"
   d=" M642.881836,199.675552   C641.495117,199.483398 639.887634,199.018784 638.160889,198.198364   C639.581482,198.362732 641.121338,198.882919 642.881836,199.675552  z"
   id="path31" />
<path
   fill="#321AAB"
   opacity="1.000000"
   stroke="none"
   d=" M647.851685,201.704712   C646.494263,201.500015 644.893738,201.045273 643.159302,200.244232   C644.553162,200.416855 646.080872,200.935760 647.851685,201.704712  z"
   id="path32" />
<path
   fill="#351EAD"
   opacity="1.000000"
   stroke="none"
   d=" M212.644989,374.086639   C212.476639,375.484131 212.029297,377.096710 211.231171,378.838074   C211.375595,377.411804 211.870789,375.856750 212.644989,374.086639  z"
   id="path33" />
<path
   fill="#FECF11"
   opacity="1.000000"
   stroke="none"
   d=" M387.154846,466.365417   C387.756012,467.474274 388.362061,468.934265 388.952820,470.798462   C388.344910,469.707306 387.752319,468.211914 387.154846,466.365417  z"
   id="path34" />
<path
   fill="#FECE10"
   opacity="1.000000"
   stroke="none"
   d=" M530.450684,563.963501   C531.840759,563.730103 533.652039,563.552185 535.712830,563.633911   C534.265503,563.935364 532.568665,563.977173 530.450684,563.963501  z"
   id="path35" />
<path
   fill="#FECF11"
   opacity="1.000000"
   stroke="none"
   d=" M386.050140,461.334534   C386.555145,461.887939 387.018646,462.766479 387.219574,463.832275   C386.640869,463.232880 386.324768,462.446259 386.050140,461.334534  z"
   id="path36" />
<path
   fill="#FECF11"
   opacity="1.000000"
   stroke="none"
   d=" M427.181946,528.256470   C427.970795,528.510132 428.931702,529.022888 429.903473,529.902832   C429.060913,529.685181 428.207458,529.100342 427.181946,528.256470  z"
   id="path37" />
<path
   fill="#FECF11"
   opacity="1.000000"
   stroke="none"
   d=" M409.801422,510.389801   C410.440308,510.819733 411.209229,511.538483 411.987762,512.633667   C411.308746,512.232910 410.620117,511.455750 409.801422,510.389801  z"
   id="path38" />
<path
   fill="#FECF11"
   opacity="1.000000"
   stroke="none"
   d=" M398.880554,494.441528   C399.523926,494.978973 400.230255,495.852539 400.917358,497.139709   C400.246613,496.628082 399.595093,495.702850 398.880554,494.441528  z"
   id="path39" />
<path
   fill="#321AAB"
   opacity="1.000000"
   stroke="none"
   d=" M821.952271,443.701782   C821.117371,443.529602 820.105774,443.094299 819.062256,442.296936   C819.945435,442.436096 820.860474,442.937378 821.952271,443.701782  z"
   id="path40" />
<path
   fill="#2F16AB"
   opacity="1.000000"
   stroke="none"
   d=" M525.918457,174.625275   C525.404236,174.843964 524.753540,174.790482 524.066162,174.453339   C524.613586,174.230804 525.197815,174.291946 525.918457,174.625275  z"
   id="path41" />
<path
   fill="#2F16AB"
   opacity="1.000000"
   stroke="none"
   d=" M820.950073,609.638855   C820.746826,609.386597 820.626709,608.814209 820.745483,608.123779   C821.000549,608.443420 821.016846,608.881042 820.950073,609.638855  z"
   id="path42" />
<path
   fill="#321AAB"
   opacity="1.000000"
   stroke="none"
   d=" M794.648315,442.865723   C794.478394,443.171143 794.006287,443.544678 793.205078,443.926819   C793.366089,443.601593 793.856140,443.267731 794.648315,442.865723  z"
   id="path43" />
<path
   fill="#321AAB"
   opacity="1.000000"
   stroke="none"
   d=" M796.633911,441.845978   C796.464844,442.172302 795.981201,442.549500 795.160828,442.908325   C795.322510,442.558868 795.820862,442.227844 796.633911,441.845978  z"
   id="path44" />
<path
   fill="#321AAB"
   opacity="1.000000"
   stroke="none"
   d=" M442.638824,844.989990   C443.002930,844.989746 443.000793,845.421875 442.998962,845.637939   C442.373322,845.806030 441.749542,845.758179 440.974854,845.425720   C441.307526,845.090820 441.791138,845.040527 442.638824,844.989990  z"
   id="path45" />
<path
   fill="#FECF11"
   opacity="1.000000"
   stroke="none"
   d=" M418.925476,520.331055   C419.139893,520.282898 419.447998,520.507446 419.839905,521.013306   C419.622192,521.064392 419.320679,520.834106 418.925476,520.331055  z"
   id="path46" />
<path
   fill="#FECF11"
   opacity="1.000000"
   stroke="none"
   d=" M401.036774,498.278748   C401.259613,498.246582 401.524017,498.495178 401.856812,499.014221   C401.642914,499.042938 401.360626,498.801208 401.036774,498.278748  z"
   id="path47" />
<path
   fill="#321AAB"
   opacity="1.000000"
   stroke="none"
   d=" M648.737061,202.055267   C648.686340,202.192322 648.411377,202.237488 648.083618,202.098328   C648.030701,201.914001 648.512817,201.963394 648.737061,202.055267  z"
   id="path48" />
<path
   fill="#FECF11"
   opacity="1.000000"
   stroke="none"
   d=" M402.990662,501.305145   C403.202911,501.279816 403.489258,501.539459 403.843140,502.090393   C403.628693,502.117859 403.346710,501.854004 402.990662,501.305145  z"
   id="path49" />
<path
   fill="#FECF11"
   opacity="1.000000"
   stroke="none"
   d=" M417.846069,519.332520   C418.044189,519.261841 418.379211,519.443848 418.830139,519.895752   C418.625031,519.972168 418.304016,519.778687 417.846069,519.332520  z"
   id="path50" />
<path
   fill="#321AAB"
   opacity="1.000000"
   stroke="none"
   d=" M792.654297,443.958344   C792.670471,444.180695 792.364868,444.486359 791.731445,444.877197   C791.713196,444.655487 792.022949,444.348572 792.654297,443.958344  z"
   id="path51" />
<path
   fill="#321AAB"
   opacity="1.000000"
   stroke="none"
   d=" M824.082886,445.680176   C823.873962,445.739441 823.558472,445.534729 823.148071,445.056702   C823.360840,444.994293 823.668579,445.205231 824.082886,445.680176  z"
   id="path52" />
<path
   fill="#321AAB"
   opacity="1.000000"
   stroke="none"
   d=" M825.093872,446.687592   C824.894409,446.747650 824.572571,446.552368 824.150879,446.084503   C824.357849,446.018707 824.664612,446.225494 825.093872,446.687592  z"
   id="path53" />
<path
   fill="#321AAB"
   opacity="1.000000"
   stroke="none"
   d=" M826.950317,448.742401   C826.754456,448.772980 826.493835,448.539551 826.139282,448.054932   C826.325439,448.028687 826.605469,448.253540 826.950317,448.742401  z"
   id="path54" />
<path
   fill="#351EAD"
   opacity="1.000000"
   stroke="none"
   d=" M297.981445,450.739685   C297.746216,450.819214 297.569397,450.671936 297.434052,450.493195   C297.407745,450.458496 297.543365,450.301178 297.759308,450.112488   C297.914307,450.024536 298.054291,450.501862 297.981445,450.739685  z"
   id="path55" />

<path
   fill="#321AAB"
   opacity="1.000000"
   stroke="none"
   d=" M499.868500,702.438354   C491.771851,701.809021 483.573975,700.806458 475.153748,699.468872   C480.057892,699.510803 485.198456,699.758362 490.305756,700.312195   C493.485565,700.656982 496.615143,701.464966 499.868500,702.438354  z"
   id="path57" />
<path
   fill="#321AAB"
   opacity="1.000000"
   stroke="none"
   d=" M244.625687,516.304932   C245.837448,525.063782 246.763443,534.098267 247.684174,543.544678   C246.960587,541.315735 245.861145,538.712036 245.599792,536.026672   C244.970886,529.565063 244.734589,523.065125 244.625687,516.304932  z"
   id="path58" />
<path
   fill="#321AAB"
   opacity="1.000000"
   stroke="none"
   d=" M464.240631,790.307861   C469.055542,790.667480 474.105988,791.321167 479.560059,792.043274   C474.801178,791.608521 469.638641,791.105225 464.240631,790.307861  z"
   id="path59" />
<path
   fill="#331BAD"
   opacity="1.000000"
   stroke="none"
   d=" M424.152649,779.233276   C427.622528,780.028687 431.212830,781.167786 434.991364,782.627563   C431.544067,781.824463 427.908569,780.700684 424.152649,779.233276  z"
   id="path60" />
<path
   fill="#331BAD"
   opacity="1.000000"
   stroke="none"
   d=" M615.156677,773.752747   C617.614685,772.135071 620.447327,770.648804 623.633179,769.120239   C621.168030,770.679993 618.349670,772.282043 615.156677,773.752747  z"
   id="path61" />
<path
   fill="#331BAD"
   opacity="1.000000"
   stroke="none"
   d=" M607.126709,776.945251   C609.134766,775.838379 611.550476,774.751709 614.327332,773.613647   C612.303772,774.696594 609.919128,775.831055 607.126709,776.945251  z"
   id="path62" />
<path
   fill="#321AAB"
   opacity="1.000000"
   stroke="none"
   d=" M454.213226,787.860657   C456.969208,788.085999 459.867676,788.682251 462.973450,789.613464   C460.239075,789.376160 457.297394,788.803833 454.213226,787.860657  z"
   id="path63" />
<path
   fill="#331BAD"
   opacity="1.000000"
   stroke="none"
   d=" M400.182800,769.118103   C402.103088,769.611206 404.116516,770.472900 406.362549,771.630249   C404.488770,771.112854 402.382355,770.299805 400.182800,769.118103  z"
   id="path64" />
<path
   fill="#331BAD"
   opacity="1.000000"
   stroke="none"
   d=" M389.037354,763.327148   C390.603821,763.746948 392.214813,764.526611 394.003876,765.593140   C392.481934,765.148926 390.781921,764.417908 389.037354,763.327148  z"
   id="path65" />
<path
   fill="#331BAD"
   opacity="1.000000"
   stroke="none"
   d=" M629.162109,766.890015   C630.290466,765.919678 631.802979,765.005798 633.648438,764.025269   C632.503052,764.954590 631.024719,765.950562 629.162109,766.890015  z"
   id="path66" />
<path
   fill="#331BAD"
   opacity="1.000000"
   stroke="none"
   d=" M416.166565,776.199707   C417.604889,776.342468 419.165955,776.841370 420.942139,777.621704   C419.534607,777.453979 417.911957,777.004944 416.166565,776.199707  z"
   id="path67" />
<path
   fill="#331BAD"
   opacity="1.000000"
   stroke="none"
   d=" M600.249390,779.395630   C601.124329,778.760315 602.203918,778.368713 603.631104,777.953979   C602.803833,778.500427 601.628967,779.069946 600.249390,779.395630  z"
   id="path68" />
<path
   fill="#331BAD"
   opacity="1.000000"
   stroke="none"
   d=" M421.196106,778.133118   C421.900482,778.031494 422.766144,778.248779 423.870911,778.705566   C423.192474,778.780640 422.274902,778.616394 421.196106,778.133118  z"
   id="path69" />
<path
   fill="#331BAD"
   opacity="1.000000"
   stroke="none"
   d=" M398.182617,768.111694   C398.657501,767.970581 399.267639,768.138245 400.041931,768.580139   C399.576660,768.709717 398.947235,768.565063 398.182617,768.111694  z"
   id="path70" />
<path
   fill="#331BAD"
   opacity="1.000000"
   stroke="none"
   d=" M604.219482,777.936890   C604.408142,777.650330 604.898865,777.337463 605.686401,777.039429   C605.496033,777.339661 605.008789,777.625061 604.219482,777.936890  z"
   id="path71" />
<path
   fill="#331BAD"
   opacity="1.000000"
   stroke="none"
   d=" M414.141968,775.223450   C414.573181,775.107300 415.166840,775.267029 415.951416,775.674866   C415.529694,775.781799 414.917053,775.640503 414.141968,775.223450  z"
   id="path72" />
<path
   fill="#331BAD"
   opacity="1.000000"
   stroke="none"
   d=" M436.190857,783.320557   C436.638428,783.163147 437.256134,783.259766 437.994232,783.661987   C437.530060,783.836609 436.945557,783.705566 436.190857,783.320557  z"
   id="path73" />
<path
   fill="#331BAD"
   opacity="1.000000"
   stroke="none"
   d=" M411.222656,774.117065   C411.745422,773.966248 412.458038,774.150024 413.396118,774.629150   C412.885254,774.766907 412.148895,774.609253 411.222656,774.117065  z"
   id="path74" />
<path
   fill="#331BAD"
   opacity="1.000000"
   stroke="none"
   d=" M409.173370,773.176147   C409.634827,773.034485 410.241119,773.187622 411.016327,773.609131   C410.562897,773.742065 409.940552,773.606445 409.173370,773.176147  z"
   id="path75" />
<path
   fill="#331BAD"
   opacity="1.000000"
   stroke="none"
   d=" M407.156219,772.249878   C407.571411,772.143738 408.149139,772.305054 408.921814,772.703857   C408.517426,772.799927 407.918060,772.658630 407.156219,772.249878  z"
   id="path76" />
<path
   fill="#331BAD"
   opacity="1.000000"
   stroke="none"
   d=" M625.046875,768.920776   C625.231689,768.579163 625.766052,768.242126 626.628540,767.845032   C626.436584,768.165100 625.916565,768.545227 625.046875,768.920776  z"
   id="path77" />
<path
   fill="#331BAD"
   opacity="1.000000"
   stroke="none"
   d=" M627.156250,767.898926   C627.307739,767.539307 627.799561,767.195923 628.602539,766.788940   C628.441345,767.121948 627.968994,767.518555 627.156250,767.898926  z"
   id="path78" />
<path
   fill="#331BAD"
   opacity="1.000000"
   stroke="none"
   d=" M396.184143,767.090698   C396.652008,766.973877 397.246613,767.165527 398.006134,767.626343   C397.550995,767.730042 396.930969,767.564575 396.184143,767.090698  z"
   id="path79" />
<path
   fill="#331BAD"
   opacity="1.000000"
   stroke="none"
   d=" M394.185242,766.093689   C394.655518,765.968018 395.257019,766.151001 396.022034,766.606323   C395.562500,766.719910 394.939484,766.561157 394.185242,766.093689  z"
   id="path80" />
<path
   fill="#331BAD"
   opacity="1.000000"
   stroke="none"
   d=" M634.255737,763.940430   C634.426453,763.648987 634.908264,763.322021 635.682556,762.949707   C635.505676,763.237854 635.036255,763.571350 634.255737,763.940430  z"
   id="path81" />
<path
   fill="#331BAD"
   opacity="1.000000"
   stroke="none"
   d=" M636.259521,762.921387   C636.474854,762.584717 637.050171,762.216125 637.979126,761.758057   C637.761719,762.075623 637.190613,762.482544 636.259521,762.921387  z"
   id="path82" />
<path
   fill="#331BAD"
   opacity="1.000000"
   stroke="none"
   d=" M384.876892,760.967163   C385.298889,760.942078 385.955444,761.198364 386.850952,761.707153   C386.430420,761.722656 385.770966,761.485657 384.876892,760.967163  z"
   id="path83" />
<path
   fill="#2F16AB"
   opacity="1.000000"
   stroke="none"
   d=" M314.826538,618.983826   C314.610413,619.049744 314.288849,618.825745 313.827271,618.339539   C314.031860,618.282837 314.376495,618.488403 314.826538,618.983826  z"
   id="path84" />
<path
   fill="#351EAD"
   opacity="1.000000"
   stroke="none"
   d=" M730.916992,612.044434   C730.956177,612.216187 730.749268,612.537231 730.286560,612.991333   C730.244080,612.814087 730.457458,612.503906 730.916992,612.044434  z"
   id="path85" />
<path
   fill="#331BAD"
   opacity="1.000000"
   stroke="none"
   d=" M387.194397,762.208313   C387.438263,762.070007 387.855133,762.220032 388.449615,762.657959   C388.207275,762.796143 387.787323,762.646423 387.194397,762.208313  z"
   id="path86" />
<path
   fill="#2F16AB"
   opacity="1.000000"
   stroke="none"
   d=" M310.836853,614.925171   C310.621185,615.002258 310.296661,614.797974 309.832825,614.335327   C310.038330,614.265930 310.383179,614.454895 310.836853,614.925171  z"
   id="path87" />
<path
   fill="#2F16AB"
   opacity="1.000000"
   stroke="none"
   d=" M311.834167,616.021729   C311.613556,616.076416 311.304321,615.842957 310.894135,615.331787   C311.110657,615.280579 311.428101,615.507080 311.834167,616.021729  z"
   id="path88" />
</svg>
